<?xml version="1.0" encoding="utf-8"?>
<!-- Generator: Adobe Illustrator 17.1.0, SVG Export Plug-In . SVG Version: 6.00 Build 0)  -->
<!DOCTYPE svg PUBLIC "-//W3C//DTD SVG 1.1//EN" "http://www.w3.org/Graphics/SVG/1.1/DTD/svg11.dtd">
<svg version="1.1" id="Layer_1" xmlns="http://www.w3.org/2000/svg" xmlns:xlink="http://www.w3.org/1999/xlink" x="0px" y="0px"
	 width="50.1px" height="34px" viewBox="0 0 50.1 34" enable-background="new 0 0 50.1 34" xml:space="preserve">
<g>
	<g>
		<path fill-rule="evenodd" clip-rule="evenodd" fill="#F5F5F5" d="M0,29.4V34h50.1v-4.6H0z M10.9,33l-0.2-0.8H9.8L9.6,33H9.1
			l0.9-2.7h0.6l0.9,2.7H10.9z M15.2,33.1c-0.8,0-1.2-0.6-1.2-1.4c0-0.8,0.5-1.4,1.3-1.4c0.8,0,1.3,0.6,1.3,1.4
			C16.5,32.6,15.9,33.1,15.2,33.1z M22.1,32.8L21.6,32l0.5-0.8h0.4L21.9,32l0.5,0.8H22.1z M23.2,32.8h-0.4L22.3,32l0.5-0.8h0.4
			L22.7,32L23.2,32.8z M26.5,33H26v-1c0-0.4,0-0.8,0-1.1h0c-0.1,0.3-0.3,0.6-0.5,0.9L24.9,33h-0.5v-2.7h0.5v1c0,0.4,0,0.8,0,1.2l0,0
			c0.1-0.3,0.3-0.6,0.5-0.9l0.7-1.2h0.5V33z M31.6,32.7c0.2,0,0.4,0,0.5-0.1l0.1,0.4c-0.1,0.1-0.4,0.1-0.7,0.1
			c-0.9,0-1.4-0.5-1.4-1.4c0-0.9,0.6-1.4,1.4-1.4c0.3,0,0.6,0.1,0.7,0.1l-0.1,0.4c-0.1-0.1-0.3-0.1-0.5-0.1c-0.5,0-0.9,0.3-0.9,1
			C30.6,32.3,31,32.7,31.6,32.7z M37,32.7c0.2,0,0.4,0,0.5-0.1l0.1,0.4c-0.1,0.1-0.4,0.1-0.7,0.1c-0.9,0-1.4-0.5-1.4-1.4
			c0-0.9,0.6-1.4,1.4-1.4c0.3,0,0.6,0.1,0.7,0.1l-0.1,0.4c-0.1-0.1-0.3-0.1-0.5-0.1c-0.6,0-0.9,0.3-0.9,1
			C36.1,32.3,36.5,32.7,37,32.7z M38.7,32.8l0.5-0.8l-0.5-0.8h0.4l0.5,0.8l-0.5,0.8H38.7z M39.8,32.8h-0.4l0.5-0.8l-0.5-0.8h0.4
			l0.5,0.8L39.8,32.8z"/>
		<path fill-rule="evenodd" clip-rule="evenodd" fill="#F5F5F5" d="M10.2,30.7L10.2,30.7c0,0.2-0.1,0.3-0.1,0.5l-0.2,0.7h0.7
			l-0.2-0.7C10.3,31.1,10.3,30.9,10.2,30.7z"/>
		<path fill-rule="evenodd" clip-rule="evenodd" fill="#F5F5F5" d="M15.2,30.7c-0.5,0-0.8,0.5-0.8,1c0,0.5,0.3,1,0.8,1
			c0.5,0,0.7-0.4,0.7-1C16,31.2,15.7,30.7,15.2,30.7z"/>
	</g>
	<path fill-rule="evenodd" clip-rule="evenodd" fill="#F5F5F5" d="M25.5,2.9c0.1,0,0.2,0,0.4,0l0.3-1c-0.3,0-0.6-0.1-1-0.1
		c-1.7-0.2-3.4-0.4-5.1-0.6l0.2-0.8c1.6,0,3.3,0.1,5,0.2c10,0.7,17.9,3.3,17.5,7.9c-0.3,4.6-8.8,5.8-18.7,5l-0.3,0l-0.3,1
		c0.3,0,0.6,0.1,0.9,0.1c1.7,0.2,3.4,0.4,5.1,0.6L29.3,16c-1.6,0-3.3-0.1-5-0.2c-10-0.7-17.9-3.3-17.5-7.9
		C7.1,3.2,15.6,2.1,25.5,2.9L25.5,2.9z M24.9,5.7c0.1,0,0.2,0,0.3,0l0.5-1.9l-0.2,0c-8-0.4-16,1.1-16.2,4.3c-0.1,3,6.1,5.3,13.5,6.4
		l1-3.8c-0.9-0.4-1.5-1.3-1.5-2.4C22.3,6.8,23.5,5.7,24.9,5.7L24.9,5.7z M25.9,5.9c0.9,0.4,1.6,1.3,1.6,2.4c0,1.4-1.2,2.6-2.6,2.6
		c-0.1,0-0.2,0-0.3,0l-0.5,1.9l0.1,0c8,0.4,16-1.1,16.2-4.3c0.1-3-6.1-5.3-13.4-6.4L25.9,5.9L25.9,5.9z M31,14.8
		c-0.5,0-0.9,0.4-0.9,0.9c0,0.5,0.4,0.9,0.9,0.9c0.5,0,0.9-0.4,0.9-0.9C31.9,15.2,31.5,14.8,31,14.8L31,14.8z M18.9,0
		C18.4,0,18,0.4,18,0.9s0.4,0.9,0.9,0.9c0.5,0,0.9-0.4,0.9-0.9S19.3,0,18.9,0L18.9,0z M24.9,6.5c-1,0-1.8,0.8-1.8,1.8
		s0.8,1.8,1.8,1.8c1,0,1.8-0.8,1.8-1.8S25.9,6.5,24.9,6.5z"/>
	<path fill="#EE1111" d="M0.3,27.9H2v-2.3c0.1,0,0.3,0,0.4,0c0.9,0,1.7-0.2,2.2-0.7c0.4-0.4,0.6-1,0.6-1.6c0-0.7-0.3-1.3-0.8-1.6
		c-0.5-0.4-1.2-0.5-2.1-0.5c-1,0-1.7,0.1-2.2,0.1V27.9L0.3,27.9L0.3,27.9z M2,22.5c0.1,0,0.3,0,0.5,0c0.7,0,1,0.3,1,0.8
		c0,0.6-0.4,0.9-1.1,0.9c-0.2,0-0.3,0-0.4,0V22.5L2,22.5L2,22.5z M10.5,23.7H8.1v-1.1h2.6v-1.5H6.3v6.7h4.5v-1.5H8.1v-1.2h2.4V23.7
		L10.5,23.7L10.5,23.7z M11.7,21.2v6.7h8.1v-6.7h-1.8v5.2h-1.4v-5.2h-1.8v5.2h-1.4v-5.2H11.7L11.7,21.2L11.7,21.2z M25.3,23.7h-2.4
		v-1.1h2.6v-1.5h-4.4v6.7h4.5v-1.5h-2.7v-1.2h2.4V23.7L25.3,23.7L25.3,23.7z M27.9,27.9h1.8v-5.2h1.7v-1.5h-5.3v1.5h1.7V27.9
		L27.9,27.9L27.9,27.9z M32.2,21.2v6.7H34v-2.7h2.2v2.7H38v-6.7h-1.8v2.5H34v-2.5H32.2L32.2,21.2L32.2,21.2z M43.5,23.7h-2.4v-1.1
		h2.6v-1.5h-4.4v6.7h4.5v-1.5h-2.7v-1.2h2.4V23.7L43.5,23.7L43.5,23.7z M44.8,27.8c0.4,0.1,1,0.1,1.8,0.1c1.4,0,2.3-0.2,2.8-0.6
		c0.4-0.3,0.7-0.8,0.7-1.5c0-0.8-0.5-1.4-1.3-1.6v0c0.8-0.3,1.1-0.8,1.1-1.4c0-0.6-0.4-1.1-0.9-1.4c-0.5-0.3-1.1-0.3-2.1-0.3
		c-0.8,0-1.7,0.1-2.1,0.1V27.8L44.8,27.8L44.8,27.8z M46.5,22.4c0.1,0,0.3,0,0.6,0c0.6,0,0.9,0.2,0.9,0.6c0,0.4-0.4,0.7-1.1,0.7
		h-0.4V22.4L46.5,22.4L46.5,22.4z M46.5,25H47c0.7,0,1.2,0.2,1.2,0.8c0,0.6-0.5,0.8-1.1,0.8c-0.2,0-0.4,0-0.5,0V25L46.5,25z"/>
</g>
</svg>
